<svg width="22" height="22" xmlns="http://www.w3.org/2000/svg">
 <!-- Generator: Sketch 51.3 (57544) - http://www.bohemiancoding.com/sketch -->

 <g>
  <title>background</title>
  <rect fill="none" id="canvas_background" height="24" width="24" y="-1" x="-1"/>
 </g>
 <g>
  <title>Layer 1</title>
  <g id="svg_1" fill-rule="evenodd" fill="none">
   <g fill-rule="nonzero" fill="#3e4654" id="favicon">
    <path id="svg_2" d="m6,4l10,0l0,2l2,0l0,-4c0,-1.1 -0.9,-2 -2,-2l-10,0c-1.1,0 -2,0.9 -2,2l0,4l2,0l0,-2zm8.4,11.6l4.6,-4.6l-4.6,-4.6l-1.4,1.4l3.2,3.2l-3.2,3.2l1.4,1.4zm-5.4,-1.4l-3.2,-3.2l3.2,-3.2l-1.4,-1.4l-4.6,4.6l4.6,4.6l1.4,-1.4zm7,3.8l-10,0l0,-2l-2,0l0,4c0,1.1 0.9,2 2,2l10,0c1.1,0 2,-0.9 2,-2l0,-4l-2,0l0,2z"/>
   </g>
  </g>
 </g>
</svg>