<svg width="129" height="24" viewBox="0 0 129 24" fill="none" xmlns="http://www.w3.org/2000/svg">
<path d="M12.08 18L13.616 7.224L9.104 18H5.816L6.296 7.176L2.288 18H0.368L6.464 1.512C5.264 1.912 4.328 2.568 3.656 3.48C2.984 4.392 2.648 5.536 2.648 6.912C2.648 7.2 2.664 7.44 2.696 7.632C2.728 7.808 2.76 7.96 2.792 8.088C2.824 8.2 2.856 8.296 2.888 8.376C2.936 8.456 2.968 8.52 2.984 8.568C2.216 8.568 1.592 8.408 1.112 8.088C0.648 7.752 0.416 7.192 0.416 6.408C0.416 5.64 0.64 4.872 1.088 4.104C1.552 3.336 2.144 2.648 2.864 2.04C3.584 1.432 4.392 0.944 5.288 0.576C6.2 0.191999 7.104 -1.43051e-06 8 -1.43051e-06C8.656 -1.43051e-06 9.28 0.111999 9.872 0.335999L9.32 12.984L14.6 0.335999H18.056L15.536 18H12.08ZM29.3849 6L27.0089 17.136C27.7449 16.88 28.3449 16.504 28.8089 16.008C29.2889 15.512 29.6969 14.744 30.0329 13.704H31.0409C30.8009 14.504 30.5129 15.168 30.1769 15.696C29.8569 16.224 29.5049 16.656 29.1209 16.992C28.7369 17.328 28.3449 17.592 27.9449 17.784C27.5449 17.96 27.1609 18.096 26.7929 18.192L26.4329 19.92C26.2569 20.784 26.0009 21.48 25.6649 22.008C25.3449 22.536 24.9849 22.944 24.5849 23.232C24.2009 23.536 23.7929 23.736 23.3609 23.832C22.9289 23.944 22.5129 24 22.1129 24C21.3769 24 20.7449 23.808 20.2169 23.424C19.6889 23.04 19.4249 22.456 19.4249 21.672C19.4249 21.176 19.5449 20.736 19.7849 20.352C20.0249 19.968 20.3289 19.632 20.6969 19.344C21.0809 19.056 21.5049 18.808 21.9689 18.6C22.4329 18.408 22.8889 18.24 23.3369 18.096L23.6249 16.8C23.1129 17.36 22.6089 17.728 22.1129 17.904C21.6169 18.064 21.1609 18.144 20.7449 18.144C20.0249 18.144 19.4169 17.92 18.9209 17.472C18.4249 17.008 18.1769 16.272 18.1769 15.264C18.1769 14.832 18.2409 14.312 18.3689 13.704L20.0009 6H23.4569L21.7289 14.16C21.6809 14.352 21.6569 14.552 21.6569 14.76C21.6569 15.032 21.7049 15.28 21.8009 15.504C21.9129 15.712 22.1049 15.816 22.3769 15.816C22.8249 15.816 23.2009 15.632 23.5049 15.264C23.8249 14.88 24.0729 14.408 24.2489 13.848L25.9289 6H29.3849ZM20.7449 21.336C20.7449 21.512 20.8089 21.688 20.9369 21.864C21.0809 22.04 21.2889 22.128 21.5609 22.128C21.8169 22.128 22.0729 21.952 22.3289 21.6C22.5849 21.248 22.7929 20.712 22.9529 19.992L23.0969 19.296C22.7929 19.408 22.4969 19.528 22.2089 19.656C21.9209 19.8 21.6649 19.952 21.4409 20.112C21.2329 20.288 21.0649 20.472 20.9369 20.664C20.8089 20.872 20.7449 21.096 20.7449 21.336ZM35.9448 2.208L35.1288 6H36.5688L36.3768 6.96H34.9368L33.4008 14.16C33.3368 14.432 33.3048 14.688 33.3048 14.928C33.3048 15.264 33.3848 15.496 33.5448 15.624C33.7048 15.752 33.9528 15.816 34.2888 15.816C34.7528 15.816 35.1848 15.616 35.5848 15.216C35.9848 14.816 36.2728 14.312 36.4488 13.704H37.4568C37.1208 14.68 36.7288 15.464 36.2808 16.056C35.8328 16.632 35.3768 17.08 34.9128 17.4C34.4488 17.704 33.9928 17.904 33.5448 18C33.1128 18.096 32.7368 18.144 32.4168 18.144C31.6968 18.144 31.0888 17.92 30.5928 17.472C30.0968 17.008 29.8488 16.272 29.8488 15.264C29.8488 14.832 29.9128 14.312 30.0408 13.704L31.4808 6.96H30.6888L30.8808 6H31.6728L32.3928 2.688L35.9448 2.208ZM42.6793 5.88C44.6953 5.88 45.7193 7.136 45.7513 9.648C45.8153 9.664 45.9033 9.672 46.0153 9.672C46.2873 9.672 46.5833 9.632 46.9033 9.552C47.2393 9.472 47.5673 9.368 47.8873 9.24C48.2233 9.096 48.5433 8.936 48.8473 8.76C49.1673 8.584 49.4553 8.408 49.7113 8.232L49.9273 8.88C49.4633 9.376 48.8553 9.8 48.1033 10.152C47.3673 10.488 46.5673 10.728 45.7033 10.872C45.6073 11.992 45.3913 13 45.0553 13.896C44.7193 14.792 44.2953 15.56 43.7833 16.2C43.2713 16.824 42.6873 17.304 42.0312 17.64C41.3753 17.976 40.6793 18.144 39.9433 18.144C39.3833 18.144 38.8633 18.08 38.3833 17.952C37.9193 17.808 37.5193 17.584 37.1833 17.28C36.8473 16.976 36.5833 16.584 36.3913 16.104C36.1993 15.624 36.1033 15.04 36.1033 14.352C36.1033 13.888 36.1513 13.36 36.2473 12.768C36.3433 12.176 36.4953 11.568 36.7033 10.944C36.9273 10.304 37.2073 9.688 37.5433 9.096C37.8793 8.488 38.2873 7.944 38.7673 7.464C39.2633 6.984 39.8313 6.6 40.4713 6.312C41.1113 6.024 41.8473 5.88 42.6793 5.88ZM40.9033 15.888C41.1913 15.888 41.4793 15.768 41.7673 15.528C42.0713 15.272 42.3433 14.928 42.5833 14.496C42.8393 14.048 43.0633 13.52 43.2553 12.912C43.4473 12.304 43.5913 11.648 43.6873 10.944C43.4313 10.88 43.2553 10.76 43.1593 10.584C43.0793 10.392 43.0393 10.176 43.0393 9.936C43.0393 9.6 43.1033 9.328 43.2313 9.12C43.3753 8.896 43.5593 8.744 43.7833 8.664C43.7513 8.168 43.6633 7.824 43.5193 7.632C43.3913 7.424 43.1753 7.32 42.8713 7.32C42.4393 7.32 42.0313 7.56 41.6473 8.04C41.2633 8.504 40.9273 9.08 40.6393 9.768C40.3513 10.44 40.1193 11.16 39.9433 11.928C39.7673 12.68 39.6793 13.352 39.6793 13.944C39.6793 14.344 39.6953 14.672 39.7273 14.928C39.7753 15.168 39.8473 15.36 39.9433 15.504C40.0393 15.648 40.1673 15.752 40.3273 15.816C40.4873 15.864 40.6793 15.888 40.9033 15.888ZM53.2261 5.88C55.2421 5.88 56.2661 7.136 56.2981 9.648C56.3621 9.664 56.4501 9.672 56.5621 9.672C56.8341 9.672 57.1301 9.632 57.4501 9.552C57.7861 9.472 58.1141 9.368 58.4341 9.24C58.7701 9.096 59.0901 8.936 59.3941 8.76C59.7141 8.584 60.0021 8.408 60.2581 8.232L60.4741 8.88C60.0101 9.376 59.4021 9.8 58.6501 10.152C57.9141 10.488 57.1141 10.728 56.2501 10.872C56.1541 11.992 55.9381 13 55.6021 13.896C55.2661 14.792 54.8421 15.56 54.3301 16.2C53.8181 16.824 53.2341 17.304 52.5781 17.64C51.9221 17.976 51.2261 18.144 50.4901 18.144C49.9301 18.144 49.4101 18.08 48.9301 17.952C48.4661 17.808 48.0661 17.584 47.7301 17.28C47.3941 16.976 47.1301 16.584 46.9381 16.104C46.7461 15.624 46.6501 15.04 46.6501 14.352C46.6501 13.888 46.6981 13.36 46.7941 12.768C46.8901 12.176 47.0421 11.568 47.2501 10.944C47.4741 10.304 47.7541 9.688 48.0901 9.096C48.4261 8.488 48.8341 7.944 49.3141 7.464C49.8101 6.984 50.3781 6.6 51.0181 6.312C51.6581 6.024 52.3941 5.88 53.2261 5.88ZM51.4501 15.888C51.7381 15.888 52.0261 15.768 52.3141 15.528C52.6181 15.272 52.8901 14.928 53.1301 14.496C53.3861 14.048 53.6101 13.52 53.8021 12.912C53.9941 12.304 54.1381 11.648 54.2341 10.944C53.9781 10.88 53.8021 10.76 53.7061 10.584C53.6261 10.392 53.5861 10.176 53.5861 9.936C53.5861 9.6 53.6501 9.328 53.7781 9.12C53.9221 8.896 54.1061 8.744 54.3301 8.664C54.2981 8.168 54.2101 7.824 54.0661 7.632C53.9381 7.424 53.7221 7.32 53.4181 7.32C52.9861 7.32 52.5781 7.56 52.1941 8.04C51.8101 8.504 51.4741 9.08 51.1861 9.768C50.8981 10.44 50.6661 11.16 50.4901 11.928C50.3141 12.68 50.2261 13.352 50.2261 13.944C50.2261 14.344 50.2421 14.672 50.2741 14.928C50.3221 15.168 50.3941 15.36 50.4901 15.504C50.5861 15.648 50.7141 15.752 50.8741 15.816C51.0341 15.864 51.2261 15.888 51.4501 15.888ZM62.621 6L62.285 7.512C62.749 7.064 63.229 6.68 63.725 6.36C64.237 6.04 64.733 5.88 65.213 5.88C65.757 5.88 66.165 6.064 66.437 6.432C66.725 6.8 66.869 7.216 66.869 7.68C66.869 7.888 66.829 8.096 66.749 8.304C66.685 8.512 66.581 8.704 66.437 8.88C66.293 9.04 66.109 9.176 65.885 9.288C65.677 9.384 65.429 9.432 65.141 9.432C64.805 9.432 64.573 9.352 64.445 9.192C64.333 9.032 64.253 8.864 64.205 8.688C64.157 8.496 64.109 8.32 64.061 8.16C64.029 8 63.925 7.92 63.749 7.92C63.445 7.92 63.157 8.008 62.885 8.184C62.613 8.36 62.317 8.592 61.997 8.88L60.077 18H56.621L59.165 6H62.621ZM68.6684 2.808C68.6684 2.28 68.8524 1.832 69.2204 1.464C69.5884 1.08 70.0364 0.887999 70.5644 0.887999C71.0924 0.887999 71.5404 1.08 71.9084 1.464C72.2924 1.832 72.4844 2.28 72.4844 2.808C72.4844 3.336 72.2924 3.784 71.9084 4.152C71.5404 4.52 71.0924 4.704 70.5644 4.704C70.0364 4.704 69.5884 4.52 69.2204 4.152C68.8524 3.784 68.6684 3.336 68.6684 2.808ZM71.6444 6L69.9164 14.16C69.8524 14.432 69.8204 14.688 69.8204 14.928C69.8204 15.264 69.9004 15.496 70.0604 15.624C70.2204 15.752 70.4684 15.816 70.8044 15.816C71.0284 15.816 71.1884 15.8 71.2844 15.768C71.3964 15.736 71.4924 15.704 71.5724 15.672C71.5404 16.104 71.4444 16.472 71.2844 16.776C71.1244 17.08 70.9244 17.336 70.6844 17.544C70.4444 17.752 70.1724 17.904 69.8684 18C69.5644 18.096 69.2524 18.144 68.9324 18.144C68.2124 18.144 67.6044 17.92 67.1084 17.472C66.6124 17.008 66.3644 16.272 66.3644 15.264C66.3644 14.832 66.4284 14.312 66.5564 13.704L68.1884 6H71.6444ZM96.4409 0.0479994L92.3609 18H89.0489L86.2649 6.096L83.5289 18H81.2489L84.9449 1.656C83.9049 2.072 83.0969 2.712 82.5209 3.576C81.9449 4.424 81.6569 5.52 81.6569 6.864C81.6569 7.168 81.6649 7.416 81.6809 7.608C81.7129 7.8 81.7449 7.96 81.7769 8.088C81.8249 8.2 81.8649 8.296 81.8969 8.376C81.9289 8.44 81.9609 8.504 81.9929 8.568C81.1609 8.568 80.5209 8.4 80.0729 8.064C79.6409 7.712 79.4249 7.104 79.4249 6.24C79.4249 5.52 79.5849 4.792 79.9049 4.056C80.2409 3.304 80.7209 2.632 81.3449 2.04C81.9689 1.432 82.7369 0.944 83.6489 0.576C84.5609 0.191999 85.6009 -1.43051e-06 86.7689 -1.43051e-06C86.9609 -1.43051e-06 87.2009 0.0159988 87.4889 0.0479994C87.7929 0.079999 88.1129 0.175999 88.4489 0.335999L91.2569 13.08L94.1129 0.0479994H96.4409ZM98.9527 14.112C98.9527 14.928 99.0967 15.472 99.3847 15.744C99.6727 16 100.105 16.128 100.681 16.128C101.161 16.128 101.593 16.064 101.977 15.936C102.361 15.808 102.721 15.64 103.057 15.432C103.393 15.208 103.713 14.952 104.017 14.664C104.321 14.36 104.625 14.04 104.929 13.704H105.745C105.409 14.264 105.025 14.808 104.593 15.336C104.161 15.864 103.673 16.336 103.129 16.752C102.585 17.168 101.985 17.504 101.329 17.76C100.673 18.016 99.9447 18.144 99.1447 18.144C98.0087 18.144 97.0967 17.848 96.4087 17.256C95.7367 16.664 95.4007 15.688 95.4007 14.328C95.4007 13.864 95.4487 13.336 95.5447 12.744C95.6407 12.152 95.7847 11.544 95.9767 10.92C96.1847 10.296 96.4567 9.688 96.7927 9.096C97.1287 8.488 97.5367 7.944 98.0167 7.464C98.4967 6.984 99.0567 6.6 99.6967 6.312C100.337 6.024 101.065 5.88 101.881 5.88C102.409 5.88 102.841 5.944 103.177 6.072C103.529 6.2 103.801 6.376 103.993 6.6C104.201 6.808 104.337 7.048 104.401 7.32C104.481 7.592 104.521 7.88 104.521 8.184C104.521 8.856 104.369 9.488 104.065 10.08C103.761 10.672 103.353 11.192 102.841 11.64C102.329 12.072 101.737 12.424 101.065 12.696C100.409 12.952 99.7207 13.104 99.0007 13.152C98.9847 13.328 98.9687 13.496 98.9527 13.656C98.9527 13.816 98.9527 13.968 98.9527 14.112ZM102.673 8.136C102.673 7.832 102.625 7.592 102.529 7.416C102.449 7.24 102.297 7.152 102.073 7.152C101.769 7.152 101.473 7.296 101.185 7.584C100.897 7.872 100.625 8.248 100.369 8.712C100.113 9.16 99.8807 9.672 99.6727 10.248C99.4807 10.824 99.3207 11.408 99.1927 12C99.6567 11.968 100.097 11.84 100.513 11.616C100.945 11.392 101.321 11.104 101.641 10.752C101.961 10.4 102.209 10 102.385 9.552C102.577 9.088 102.673 8.616 102.673 8.136ZM110.012 6L108.284 14.16C108.236 14.352 108.212 14.552 108.212 14.76C108.212 15.032 108.26 15.28 108.356 15.504C108.468 15.712 108.66 15.816 108.932 15.816C109.396 15.816 109.788 15.616 110.108 15.216C110.428 14.816 110.676 14.312 110.852 13.704L112.484 6H115.94L114.212 14.16C114.132 14.528 114.092 14.816 114.092 15.024C114.092 15.264 114.156 15.456 114.284 15.6C114.412 15.744 114.62 15.816 114.908 15.816C115.292 15.816 115.66 15.68 116.012 15.408C116.38 15.136 116.716 14.776 117.02 14.328C117.34 13.88 117.62 13.376 117.86 12.816C118.116 12.24 118.332 11.656 118.508 11.064C118.684 10.456 118.82 9.872 118.916 9.312C119.012 8.752 119.06 8.248 119.06 7.8C119.028 7.88 118.916 7.944 118.724 7.992C118.532 8.024 118.388 8.04 118.292 8.04C118.004 8.04 117.788 7.904 117.644 7.632C117.5 7.36 117.428 7.088 117.428 6.816C117.428 6.448 117.548 6.144 117.788 5.904C118.028 5.648 118.404 5.52 118.916 5.52C119.204 5.52 119.444 5.584 119.636 5.712C119.828 5.824 119.98 5.976 120.092 6.168C120.22 6.36 120.308 6.584 120.356 6.84C120.404 7.096 120.428 7.352 120.428 7.608C120.428 8.248 120.372 8.952 120.26 9.72C120.148 10.488 119.972 11.264 119.732 12.048C119.508 12.832 119.212 13.592 118.844 14.328C118.476 15.048 118.036 15.696 117.524 16.272C117.028 16.832 116.452 17.288 115.796 17.64C115.14 17.976 114.404 18.144 113.588 18.144C112.804 18.144 112.164 17.976 111.668 17.64C111.172 17.304 110.852 16.8 110.708 16.128C110.42 16.56 110.124 16.912 109.82 17.184C109.516 17.44 109.212 17.64 108.908 17.784C108.62 17.928 108.34 18.024 108.068 18.072C107.796 18.12 107.54 18.144 107.3 18.144C106.58 18.144 105.972 17.92 105.476 17.472C104.98 17.008 104.732 16.272 104.732 15.264C104.732 14.832 104.796 14.312 104.924 13.704L106.556 6H110.012ZM127.799 5.256C127.863 6.808 127.927 8.064 127.991 9.024C128.055 9.984 128.111 10.768 128.159 11.376C128.207 11.968 128.247 12.456 128.279 12.84C128.311 13.208 128.327 13.592 128.327 13.992C128.327 14.776 128.167 15.432 127.847 15.96C127.543 16.488 127.151 16.92 126.671 17.256C126.191 17.576 125.671 17.808 125.111 17.952C124.551 18.08 124.023 18.144 123.527 18.144C122.919 18.144 122.391 18.056 121.943 17.88C121.511 17.688 121.151 17.448 120.863 17.16C120.575 16.872 120.367 16.544 120.239 16.176C120.095 15.808 120.023 15.44 120.023 15.072C120.023 14.512 120.151 14.04 120.407 13.656C120.663 13.272 120.959 13 121.295 12.84C121.967 11.64 122.535 10.456 122.999 9.288C123.463 8.104 123.879 6.92 124.247 5.736L127.799 5.256ZM122.999 13.704C122.999 13.992 122.903 14.264 122.711 14.52C122.519 14.76 122.263 14.88 121.943 14.88C121.815 14.88 121.687 14.864 121.559 14.832C121.447 14.784 121.359 14.696 121.295 14.568C121.295 15.128 121.407 15.552 121.631 15.84C121.855 16.112 122.231 16.248 122.759 16.248C123.015 16.248 123.271 16.216 123.527 16.152C123.783 16.072 124.007 15.944 124.199 15.768C124.391 15.592 124.543 15.36 124.655 15.072C124.783 14.784 124.847 14.432 124.847 14.016C124.847 13.712 124.831 13.416 124.799 13.128C124.783 12.84 124.751 12.496 124.703 12.096C124.671 11.696 124.623 11.2 124.559 10.608C124.511 10.016 124.455 9.256 124.391 8.328C124.151 9.112 123.863 9.872 123.527 10.608C123.207 11.344 122.847 12.096 122.447 12.864C122.607 12.944 122.735 13.056 122.831 13.2C122.943 13.328 122.999 13.496 122.999 13.704Z" fill="#464439"/>
</svg>
